<svg xmlns="http://www.w3.org/2000/svg" viewBox="0 0 692.06 1025.39"><defs><style>.cls-1{fill:#ebebeb;}.cls-2,.cls-3,.cls-4,.cls-5,.cls-6,.cls-7,.cls-8{fill:none;stroke:#ebebeb;stroke-miterlimit:10;}.cls-3,.cls-4,.cls-6,.cls-7,.cls-8{stroke-width:3px;}.cls-4{stroke-dasharray:11.56 11.56;}.cls-5{stroke-width:9px;}.cls-6{stroke-dasharray:12.97 12.97;}.cls-7{stroke-dasharray:12 12;}.cls-8{stroke-dasharray:12.28 12.28;}</style></defs><g id="Layer_2" data-name="Layer 2"><g id="Layer_1-2" data-name="Layer 1"><path class="cls-1" d="M195,389.16v257H1v-257H195m1-1H0v259H196v-259Z"/><line class="cls-2" x1="15.5" y1="411.66" x2="141.5" y2="411.66"/><line class="cls-2" x1="15" y1="427.66" x2="154.5" y2="427.66"/><line class="cls-2" x1="15" y1="443.66" x2="116.5" y2="443.66"/><line class="cls-2" x1="15" y1="459.66" x2="141" y2="459.66"/><line class="cls-2" x1="15" y1="476.66" x2="173.5" y2="474.66"/><line class="cls-2" x1="15" y1="492.66" x2="154.5" y2="492.66"/><line class="cls-2" x1="15" y1="509.66" x2="172.5" y2="509.66"/><line class="cls-2" x1="15.25" y1="527.07" x2="172.75" y2="527.07"/><line class="cls-2" x1="15.25" y1="544.07" x2="134.5" y2="543.66"/><line class="cls-2" x1="19.25" y1="597.07" x2="176.75" y2="597.07"/><line class="cls-2" x1="19.25" y1="619.08" x2="159.5" y2="618.66"/><line class="cls-3" x1="195.5" y1="411.66" x2="201.5" y2="411.66"/><line class="cls-4" x1="213.06" y1="411.66" x2="484.72" y2="411.66"/><line class="cls-3" x1="490.5" y1="411.66" x2="496.5" y2="411.66"/><path class="cls-1" d="M691.06,389V646h-194V389h194m1-1h-196V647h196V388Z"/><line class="cls-2" x1="511.56" y1="411.47" x2="637.56" y2="411.47"/><line class="cls-2" x1="511.06" y1="427.47" x2="650.56" y2="427.47"/><line class="cls-2" x1="511.06" y1="443.47" x2="612.56" y2="443.47"/><line class="cls-2" x1="511.06" y1="459.47" x2="637.06" y2="459.47"/><line class="cls-2" x1="511.06" y1="476.47" x2="669.56" y2="474.47"/><line class="cls-2" x1="511.06" y1="492.47" x2="650.56" y2="492.47"/><line class="cls-2" x1="511.06" y1="509.47" x2="668.56" y2="509.47"/><line class="cls-2" x1="511.31" y1="526.89" x2="668.81" y2="526.89"/><line class="cls-2" x1="511.31" y1="543.89" x2="630.56" y2="543.47"/><line class="cls-2" x1="515.31" y1="596.89" x2="672.81" y2="596.89"/><line class="cls-2" x1="515.31" y1="618.89" x2="655.56" y2="618.48"/><line class="cls-5" x1="608" y1="618.66" x2="640" y2="618.66"/><line class="cls-3" x1="351.6" y1="413.66" x2="351.6" y2="407.66"/><line class="cls-6" x1="351.6" y1="394.69" x2="351.6" y2="271.42"/><line class="cls-3" x1="351.6" y1="264.94" x2="351.6" y2="258.94"/><path class="cls-1" d="M441.91,1V258h-194V1h194m1-1h-196V259h196V0Z"/><line class="cls-2" x1="262.41" y1="23.5" x2="388.41" y2="23.5"/><line class="cls-2" x1="261.91" y1="39.5" x2="401.41" y2="39.5"/><line class="cls-2" x1="261.91" y1="55.5" x2="363.41" y2="55.5"/><line class="cls-2" x1="261.91" y1="71.5" x2="387.91" y2="71.5"/><line class="cls-2" x1="261.91" y1="88.5" x2="420.41" y2="86.5"/><line class="cls-2" x1="261.91" y1="104.5" x2="401.41" y2="104.5"/><line class="cls-2" x1="261.91" y1="121.5" x2="419.41" y2="121.5"/><line class="cls-2" x1="262.17" y1="138.91" x2="419.67" y2="138.91"/><line class="cls-2" x1="262.17" y1="155.91" x2="381.41" y2="155.5"/><line class="cls-2" x1="266.17" y1="208.91" x2="423.67" y2="208.91"/><line class="cls-2" x1="266.17" y1="230.92" x2="406.41" y2="230.5"/><line class="cls-5" x1="320" y1="208.66" x2="352" y2="208.66"/><line class="cls-5" x1="372" y1="86.66" x2="404" y2="86.66"/><path class="cls-1" d="M691,767.39v257H497v-257H691m1-1H496v259H692v-259Z"/><line class="cls-2" x1="511.53" y1="789.89" x2="637.53" y2="789.89"/><line class="cls-2" x1="511.03" y1="805.89" x2="650.53" y2="805.89"/><line class="cls-2" x1="511.03" y1="821.89" x2="612.53" y2="821.89"/><line class="cls-2" x1="511.03" y1="837.89" x2="637.03" y2="837.89"/><line class="cls-2" x1="511.03" y1="854.89" x2="669.53" y2="852.89"/><line class="cls-2" x1="511.03" y1="870.89" x2="650.53" y2="870.89"/><line class="cls-2" x1="511.03" y1="887.89" x2="668.53" y2="887.89"/><line class="cls-2" x1="511.29" y1="905.3" x2="668.79" y2="905.3"/><line class="cls-2" x1="511.29" y1="922.3" x2="630.53" y2="921.89"/><line class="cls-2" x1="515.29" y1="975.3" x2="672.79" y2="975.3"/><line class="cls-2" x1="515.29" y1="997.31" x2="655.53" y2="996.89"/><line class="cls-5" x1="564.97" y1="905.08" x2="596.97" y2="905.08"/><line class="cls-3" x1="593.96" y1="766.66" x2="593.96" y2="760.66"/><line class="cls-7" x1="593.96" y1="748.66" x2="593.96" y2="658.66"/><line class="cls-3" x1="593.96" y1="652.66" x2="593.96" y2="646.66"/><line class="cls-3" x1="374" y1="904.66" x2="380" y2="904.66"/><line class="cls-8" x1="392.28" y1="904.66" x2="484.36" y2="904.66"/><line class="cls-3" x1="490.5" y1="904.66" x2="496.5" y2="904.66"/><path class="cls-1" d="M372.87,767.2v257h-194v-257h194m1-1h-196v259h196v-259Z"/><line class="cls-2" x1="193.37" y1="789.7" x2="319.37" y2="789.7"/><line class="cls-2" x1="192.87" y1="805.7" x2="332.37" y2="805.7"/><line class="cls-2" x1="192.87" y1="821.7" x2="294.37" y2="821.7"/><line class="cls-2" x1="192.87" y1="837.7" x2="318.87" y2="837.7"/><line class="cls-2" x1="192.87" y1="854.7" x2="351.37" y2="852.7"/><line class="cls-2" x1="192.87" y1="870.7" x2="332.37" y2="870.7"/><line class="cls-2" x1="192.87" y1="887.7" x2="350.37" y2="887.7"/><line class="cls-2" x1="193.12" y1="905.12" x2="350.62" y2="905.12"/><line class="cls-2" x1="193.12" y1="922.12" x2="312.37" y2="921.7"/><line class="cls-2" x1="197.12" y1="975.12" x2="354.62" y2="975.12"/><line class="cls-2" x1="197.12" y1="997.12" x2="337.37" y2="996.71"/><line class="cls-5" x1="530" y1="871.66" x2="562" y2="871.66"/></g></g></svg>