<svg xmlns="http://www.w3.org/2000/svg" viewBox="0 0 841.91 259.19"><defs><style>.cls-1{fill:#ebebeb;}.cls-2,.cls-3,.cls-4,.cls-5{fill:none;stroke:#ebebeb;stroke-miterlimit:10;}.cls-3{stroke-width:9px;}.cls-4,.cls-5{stroke-width:3px;}.cls-5{stroke-dasharray:12.83 12.83;}</style></defs><g id="Layer_2" data-name="Layer 2"><g id="Layer_1-2" data-name="Layer 1"><path class="cls-1" d="M195,1.19v257H1V1.19H195m1-1H0v259H196V.19Z"/><line class="cls-2" x1="15.5" y1="23.69" x2="141.5" y2="23.69"/><line class="cls-2" x1="15" y1="39.69" x2="154.5" y2="39.69"/><line class="cls-2" x1="15" y1="55.69" x2="116.5" y2="55.69"/><line class="cls-2" x1="15" y1="71.69" x2="141" y2="71.69"/><line class="cls-2" x1="15" y1="88.69" x2="173.5" y2="86.69"/><line class="cls-2" x1="15" y1="104.69" x2="154.5" y2="104.69"/><line class="cls-2" x1="15" y1="121.69" x2="172.5" y2="121.69"/><line class="cls-2" x1="15.25" y1="139.1" x2="172.75" y2="139.1"/><line class="cls-2" x1="15.25" y1="156.1" x2="134.5" y2="155.69"/><line class="cls-2" x1="19.25" y1="209.1" x2="176.75" y2="209.1"/><line class="cls-2" x1="19.25" y1="231.1" x2="159.5" y2="230.69"/><line class="cls-3" x1="114" y1="39.69" x2="146" y2="39.69"/><line class="cls-4" x1="196" y1="138.69" x2="202" y2="138.69"/><line class="cls-5" x1="214.83" y1="138.69" x2="311.08" y2="138.69"/><line class="cls-4" x1="317.5" y1="138.69" x2="323.5" y2="138.69"/><path class="cls-1" d="M518.06,1V258h-194V1h194m1-1h-196V259h196V0Z"/><line class="cls-2" x1="338.56" y1="23.5" x2="464.56" y2="23.5"/><line class="cls-2" x1="338.06" y1="39.5" x2="477.56" y2="39.5"/><line class="cls-2" x1="338.06" y1="55.5" x2="439.56" y2="55.5"/><line class="cls-2" x1="338.06" y1="71.5" x2="464.06" y2="71.5"/><line class="cls-2" x1="338.06" y1="88.5" x2="496.56" y2="86.5"/><line class="cls-2" x1="338.06" y1="104.5" x2="477.56" y2="104.5"/><line class="cls-2" x1="338.06" y1="121.5" x2="495.56" y2="121.5"/><line class="cls-2" x1="338.31" y1="138.91" x2="495.81" y2="138.91"/><line class="cls-2" x1="338.31" y1="155.91" x2="457.56" y2="155.5"/><line class="cls-2" x1="342.31" y1="208.91" x2="499.81" y2="208.91"/><line class="cls-2" x1="342.31" y1="230.92" x2="482.56" y2="230.5"/><line class="cls-3" x1="392" y1="138.69" x2="424" y2="138.69"/><line class="cls-4" x1="518.85" y1="138.71" x2="524.85" y2="138.71"/><line class="cls-5" x1="537.69" y1="138.71" x2="633.94" y2="138.71"/><line class="cls-4" x1="640.35" y1="138.71" x2="646.35" y2="138.71"/><path class="cls-1" d="M840.91,1V258h-194V1h194m1-1h-196V259h196V0Z"/><line class="cls-2" x1="661.41" y1="23.53" x2="787.41" y2="23.53"/><line class="cls-2" x1="660.91" y1="39.53" x2="800.41" y2="39.53"/><line class="cls-2" x1="660.91" y1="55.53" x2="762.41" y2="55.53"/><line class="cls-2" x1="660.91" y1="71.53" x2="786.91" y2="71.53"/><line class="cls-2" x1="660.91" y1="88.53" x2="819.41" y2="86.53"/><line class="cls-2" x1="660.91" y1="104.53" x2="800.41" y2="104.53"/><line class="cls-2" x1="660.91" y1="121.53" x2="818.41" y2="121.53"/><line class="cls-2" x1="661.17" y1="138.94" x2="818.67" y2="138.94"/><line class="cls-2" x1="661.17" y1="155.94" x2="780.41" y2="155.53"/><line class="cls-2" x1="665.17" y1="208.94" x2="822.67" y2="208.94"/><line class="cls-2" x1="665.17" y1="230.94" x2="805.41" y2="230.53"/><line class="cls-3" x1="719" y1="208.69" x2="751" y2="208.69"/></g></g></svg>