<svg xmlns="http://www.w3.org/2000/svg" viewBox="0 0 914.02 799.38"><defs><style>.cls-1{fill:#ebebeb;}.cls-10,.cls-2,.cls-3,.cls-4,.cls-5,.cls-6,.cls-7,.cls-8,.cls-9{fill:none;stroke:#ebebeb;stroke-miterlimit:10;}.cls-3{stroke-width:9px;}.cls-10,.cls-4,.cls-5,.cls-6,.cls-7,.cls-8,.cls-9{stroke-width:3px;}.cls-5{stroke-dasharray:11.57 11.57;}.cls-6{stroke-dasharray:12.83 12.83;}.cls-7{stroke-dasharray:12.33 12.33;}.cls-8{stroke-dasharray:12.51 12.51;}.cls-9{stroke-dasharray:11.51 11.51;}.cls-10{stroke-dasharray:10.71 10.71;}</style></defs><g id="Layer_2" data-name="Layer 2"><g id="Layer_1-2" data-name="Layer 1"><path class="cls-1" d="M554.05,247.21v257h-194v-257h194m1-1h-196v259h196v-259Z"/><line class="cls-2" x1="374.55" y1="269.71" x2="500.55" y2="269.71"/><line class="cls-2" x1="374.05" y1="285.71" x2="513.55" y2="285.71"/><line class="cls-2" x1="374.05" y1="301.71" x2="475.55" y2="301.71"/><line class="cls-2" x1="374.05" y1="317.71" x2="500.05" y2="317.71"/><line class="cls-2" x1="374.05" y1="334.71" x2="532.55" y2="332.71"/><line class="cls-2" x1="374.05" y1="350.71" x2="513.55" y2="350.71"/><line class="cls-2" x1="374.05" y1="367.71" x2="531.55" y2="367.71"/><line class="cls-2" x1="374.3" y1="385.12" x2="531.8" y2="385.12"/><line class="cls-2" x1="374.3" y1="402.12" x2="493.55" y2="401.71"/><line class="cls-2" x1="378.3" y1="455.12" x2="535.8" y2="455.12"/><line class="cls-2" x1="378.3" y1="477.12" x2="518.55" y2="476.71"/><line class="cls-3" x1="385.55" y1="350.71" x2="417.55" y2="350.71"/><line class="cls-3" x1="471.05" y1="385.71" x2="503.05" y2="385.71"/><line class="cls-3" x1="473.05" y1="285.71" x2="505.05" y2="285.71"/><line class="cls-3" x1="409.05" y1="455.71" x2="441.05" y2="455.71"/><path class="cls-1" d="M913,1V258H719V1H913m1-1H718V259H914V0Z"/><line class="cls-2" x1="733.52" y1="23.5" x2="859.52" y2="23.5"/><line class="cls-2" x1="733.02" y1="39.5" x2="872.52" y2="39.5"/><line class="cls-2" x1="733.02" y1="55.5" x2="834.52" y2="55.5"/><line class="cls-2" x1="733.02" y1="71.5" x2="859.02" y2="71.5"/><line class="cls-2" x1="733.02" y1="88.5" x2="891.52" y2="86.5"/><line class="cls-2" x1="733.02" y1="104.5" x2="872.52" y2="104.5"/><line class="cls-2" x1="733.02" y1="121.5" x2="890.52" y2="121.5"/><line class="cls-2" x1="733.27" y1="138.91" x2="890.77" y2="138.91"/><line class="cls-2" x1="733.27" y1="155.91" x2="852.52" y2="155.5"/><line class="cls-2" x1="737.27" y1="208.91" x2="894.77" y2="208.91"/><line class="cls-2" x1="737.27" y1="230.92" x2="877.52" y2="230.5"/><line class="cls-4" x1="561.55" y1="385.71" x2="567.55" y2="385.71"/><line class="cls-5" x1="579.12" y1="385.71" x2="804.77" y2="385.71"/><line class="cls-4" x1="810.55" y1="385.71" x2="816.55" y2="385.71"/><line class="cls-4" x1="815.55" y1="259.21" x2="815.55" y2="265.21"/><line class="cls-6" x1="815.55" y1="278.04" x2="815.55" y2="374.29"/><line class="cls-4" x1="815.55" y1="380.71" x2="815.55" y2="386.71"/><path class="cls-1" d="M195,10V267H1V10H195m1-1H0V268H196V9Z"/><line class="cls-2" x1="15.5" y1="32.53" x2="141.5" y2="32.53"/><line class="cls-2" x1="15" y1="48.53" x2="154.5" y2="48.53"/><line class="cls-2" x1="15" y1="64.53" x2="116.5" y2="64.53"/><line class="cls-2" x1="15" y1="80.53" x2="141" y2="80.53"/><line class="cls-2" x1="15" y1="97.53" x2="173.5" y2="95.53"/><line class="cls-2" x1="15" y1="113.53" x2="154.5" y2="113.53"/><line class="cls-2" x1="15" y1="130.53" x2="172.5" y2="130.53"/><line class="cls-2" x1="15.25" y1="147.94" x2="172.75" y2="147.94"/><line class="cls-2" x1="15.25" y1="164.94" x2="134.5" y2="164.53"/><line class="cls-2" x1="19.25" y1="217.94" x2="176.75" y2="217.94"/><line class="cls-2" x1="19.25" y1="239.95" x2="159.5" y2="239.53"/><line class="cls-4" x1="195.05" y1="147.71" x2="201.05" y2="147.71"/><line class="cls-7" x1="213.38" y1="147.71" x2="478.39" y2="147.71"/><line class="cls-4" x1="484.55" y1="147.71" x2="490.55" y2="147.71"/><line class="cls-4" x1="489.4" y1="146.71" x2="489.4" y2="152.71"/><line class="cls-8" x1="489.4" y1="165.22" x2="489.4" y2="234.04"/><line class="cls-4" x1="489.4" y1="240.29" x2="489.4" y2="246.29"/><path class="cls-1" d="M196.27,341.51v257H2.27v-257h194m1-1H1.27v259h196v-259Z"/><line class="cls-2" x1="16.77" y1="364.01" x2="142.77" y2="364.01"/><line class="cls-2" x1="16.27" y1="380.01" x2="155.77" y2="380.01"/><line class="cls-2" x1="16.27" y1="396.01" x2="117.77" y2="396.01"/><line class="cls-2" x1="16.27" y1="412.01" x2="142.27" y2="412.01"/><line class="cls-2" x1="16.27" y1="429.01" x2="174.77" y2="427.01"/><line class="cls-2" x1="16.27" y1="445.01" x2="155.77" y2="445.01"/><line class="cls-2" x1="16.27" y1="462.01" x2="173.77" y2="462.01"/><line class="cls-2" x1="16.52" y1="479.42" x2="174.02" y2="479.42"/><line class="cls-2" x1="16.52" y1="496.42" x2="135.77" y2="496.01"/><line class="cls-2" x1="20.52" y1="549.42" x2="178.02" y2="549.42"/><line class="cls-2" x1="20.52" y1="571.42" x2="160.77" y2="571.01"/><line class="cls-4" x1="197.55" y1="351.12" x2="203.55" y2="351.12"/><line class="cls-9" x1="215.06" y1="351.12" x2="347.42" y2="351.12"/><line class="cls-4" x1="353.18" y1="351.12" x2="359.18" y2="351.12"/><path class="cls-1" d="M785.69,541.38v257h-194v-257h194m1-1h-196v259h196v-259Z"/><line class="cls-2" x1="606.19" y1="563.88" x2="732.19" y2="563.88"/><line class="cls-2" x1="605.69" y1="579.88" x2="745.19" y2="579.88"/><line class="cls-2" x1="605.69" y1="595.88" x2="707.19" y2="595.88"/><line class="cls-2" x1="605.69" y1="611.88" x2="731.69" y2="611.88"/><line class="cls-2" x1="605.69" y1="628.88" x2="764.19" y2="626.88"/><line class="cls-2" x1="605.69" y1="644.88" x2="745.19" y2="644.88"/><line class="cls-2" x1="605.69" y1="661.88" x2="763.19" y2="661.88"/><line class="cls-2" x1="605.94" y1="679.29" x2="763.44" y2="679.29"/><line class="cls-2" x1="605.94" y1="696.29" x2="725.19" y2="695.88"/><line class="cls-2" x1="609.94" y1="749.29" x2="767.44" y2="749.29"/><line class="cls-2" x1="609.94" y1="771.29" x2="750.19" y2="770.88"/><line class="cls-4" x1="561.05" y1="454.71" x2="567.05" y2="454.71"/><line class="cls-6" x1="579.88" y1="454.71" x2="676.13" y2="454.71"/><line class="cls-4" x1="682.55" y1="454.71" x2="688.55" y2="454.71"/><line class="cls-4" x1="688.69" y1="453.71" x2="688.69" y2="459.71"/><line class="cls-10" x1="688.69" y1="470.42" x2="688.69" y2="529.35"/><line class="cls-4" x1="688.69" y1="534.71" x2="688.69" y2="540.71"/></g></g></svg>