<svg xmlns="http://www.w3.org/2000/svg" viewBox="0 0 963.34 498.93"><defs><style>.cls-1{fill:#ebebeb;}.cls-2,.cls-3,.cls-4,.cls-5,.cls-6,.cls-7{fill:none;stroke:#ebebeb;stroke-miterlimit:10;}.cls-3{stroke-width:9px;}.cls-4,.cls-5,.cls-6,.cls-7{stroke-width:3px;}.cls-5{stroke-dasharray:12 12;}.cls-6{stroke-dasharray:12.28 12.28;}.cls-7{stroke-dasharray:10.76 10.76;}</style></defs><g id="Layer_2" data-name="Layer 2"><g id="Layer_1-2" data-name="Layer 1"><path class="cls-1" d="M896.9,120.74v257h-194v-257h194m1-1h-196v259h196v-259Z"/><line class="cls-2" x1="717.4" y1="143.24" x2="843.4" y2="143.24"/><line class="cls-2" x1="716.9" y1="159.24" x2="856.4" y2="159.24"/><line class="cls-2" x1="716.9" y1="175.24" x2="818.4" y2="175.24"/><line class="cls-2" x1="716.9" y1="191.24" x2="842.9" y2="191.24"/><line class="cls-2" x1="716.9" y1="208.24" x2="875.4" y2="206.24"/><line class="cls-2" x1="716.9" y1="224.24" x2="856.4" y2="224.24"/><line class="cls-2" x1="716.9" y1="241.24" x2="874.4" y2="241.24"/><line class="cls-2" x1="717.15" y1="258.66" x2="874.65" y2="258.66"/><line class="cls-2" x1="717.15" y1="275.66" x2="836.4" y2="275.24"/><line class="cls-2" x1="721.15" y1="328.66" x2="878.65" y2="328.66"/><line class="cls-2" x1="721.15" y1="350.66" x2="861.4" y2="350.25"/><line class="cls-3" x1="813.84" y1="350.43" x2="845.84" y2="350.43"/><path class="cls-1" d="M578.88,121.16v257h-194v-257h194m1-1h-196v259h196v-259Z"/><line class="cls-2" x1="399.38" y1="143.66" x2="525.38" y2="143.66"/><line class="cls-2" x1="398.88" y1="159.66" x2="538.38" y2="159.66"/><line class="cls-2" x1="398.88" y1="175.66" x2="500.38" y2="175.66"/><line class="cls-2" x1="398.88" y1="191.66" x2="524.88" y2="191.66"/><line class="cls-2" x1="398.88" y1="208.66" x2="557.38" y2="206.66"/><line class="cls-2" x1="398.88" y1="224.66" x2="538.38" y2="224.66"/><line class="cls-2" x1="398.88" y1="241.66" x2="556.38" y2="241.66"/><line class="cls-2" x1="399.13" y1="259.07" x2="556.63" y2="259.07"/><line class="cls-2" x1="399.13" y1="276.07" x2="518.38" y2="275.66"/><line class="cls-2" x1="403.13" y1="329.07" x2="560.63" y2="329.07"/><line class="cls-2" x1="403.13" y1="351.08" x2="543.38" y2="350.66"/><line class="cls-3" x1="452.82" y1="258.85" x2="484.82" y2="258.85"/><line class="cls-4" x1="481.81" y1="120.43" x2="481.81" y2="114.43"/><line class="cls-5" x1="481.81" y1="102.43" x2="481.81" y2="12.43"/><line class="cls-4" x1="481.81" y1="6.43" x2="481.81" y2="0.43"/><line class="cls-4" x1="261.84" y1="258.43" x2="267.84" y2="258.43"/><line class="cls-6" x1="280.12" y1="258.43" x2="372.2" y2="258.43"/><line class="cls-4" x1="378.34" y1="258.43" x2="384.34" y2="258.43"/><path class="cls-1" d="M260.71,121V378h-194V121h194m1-1h-196V379h196V120Z"/><line class="cls-2" x1="81.21" y1="143.47" x2="207.21" y2="143.47"/><line class="cls-2" x1="80.71" y1="159.47" x2="220.21" y2="159.47"/><line class="cls-2" x1="80.71" y1="175.47" x2="182.21" y2="175.47"/><line class="cls-2" x1="80.71" y1="191.47" x2="206.71" y2="191.47"/><line class="cls-2" x1="80.71" y1="208.47" x2="239.21" y2="206.47"/><line class="cls-2" x1="80.71" y1="224.47" x2="220.21" y2="224.47"/><line class="cls-2" x1="80.71" y1="241.47" x2="238.21" y2="241.47"/><line class="cls-2" x1="80.96" y1="258.89" x2="238.46" y2="258.89"/><line class="cls-2" x1="80.96" y1="275.89" x2="200.21" y2="275.47"/><line class="cls-2" x1="84.96" y1="328.89" x2="242.46" y2="328.89"/><line class="cls-2" x1="84.96" y1="350.89" x2="225.21" y2="350.48"/><line class="cls-3" x1="417.84" y1="225.43" x2="449.84" y2="225.43"/><line class="cls-4" x1="579.77" y1="258.22" x2="585.77" y2="258.22"/><line class="cls-6" x1="598.05" y1="258.22" x2="690.13" y2="258.22"/><line class="cls-4" x1="696.27" y1="258.22" x2="702.27" y2="258.22"/><line class="cls-4" x1="484.34" y1="498.93" x2="484.34" y2="492.93"/><line class="cls-5" x1="484.34" y1="480.93" x2="484.34" y2="390.93"/><line class="cls-4" x1="484.34" y1="384.93" x2="484.34" y2="378.93"/><line class="cls-4" x1="798.66" y1="120.12" x2="798.66" y2="114.12"/><line class="cls-5" x1="798.66" y1="102.12" x2="798.66" y2="12.12"/><line class="cls-4" x1="798.66" y1="6.12" x2="798.66" y2="0.12"/><line class="cls-4" x1="801.2" y1="498.62" x2="801.2" y2="492.62"/><line class="cls-5" x1="801.2" y1="480.62" x2="801.2" y2="390.62"/><line class="cls-4" x1="801.2" y1="384.62" x2="801.2" y2="378.62"/><line class="cls-4" x1="162.18" y1="120" x2="162.18" y2="114"/><line class="cls-5" x1="162.18" y1="102" x2="162.18" y2="12"/><line class="cls-4" x1="162.18" y1="6" x2="162.18"/><line class="cls-4" x1="164.72" y1="498.5" x2="164.72" y2="492.5"/><line class="cls-5" x1="164.72" y1="480.5" x2="164.72" y2="390.5"/><line class="cls-4" x1="164.72" y1="384.5" x2="164.72" y2="378.5"/><line class="cls-4" x1="897.56" y1="259.46" x2="903.56" y2="259.46"/><line class="cls-7" x1="914.31" y1="259.46" x2="951.96" y2="259.46"/><line class="cls-4" x1="957.34" y1="259.46" x2="963.34" y2="259.46"/><line class="cls-4" y1="259.15" x2="6" y2="259.15"/><line class="cls-7" x1="16.76" y1="259.15" x2="54.41" y2="259.15"/><line class="cls-4" x1="59.79" y1="259.15" x2="65.79" y2="259.15"/><line class="cls-3" x1="742.84" y1="143.43" x2="774.84" y2="143.43"/><line class="cls-3" x1="829.84" y1="207.43" x2="861.84" y2="207.43"/><line class="cls-3" x1="92.84" y1="329.43" x2="124.84" y2="329.43"/><line class="cls-3" x1="159.84" y1="329.43" x2="191.84" y2="329.43"/><line class="cls-3" x1="104.84" y1="208.43" x2="136.84" y2="208.43"/><line class="cls-3" x1="468.84" y1="351.43" x2="500.84" y2="351.43"/><line class="cls-3" x1="442.84" y1="191.43" x2="474.84" y2="191.43"/></g></g></svg>